# xmcd
# 
# Track frame offsets:
#     150
#     20524
#     41313
#     79253
#     100494
#     121987
#     136317
#     158999
#     193965
#     211844
#     243220
#     270577
# 
# Disc length: 3931
# 
# Revision: 5
# Processed by: cddbd v1.5.2PL0 Copyright (c) Steve Scherf et al.
# Submitted via: fre:ac v1.0.27
# 
DISCID=a10f590c
DTITLE=Buddy Guy - Damn Right, I've Got the Blues
DYEAR=2005
DGENRE=Blues
TTITLE0=Damn Right, I've Got the Blues
TTITLE1=Where Is the Next One Coming From
TTITLE2=Five Long Years
TTITLE3=Mustang Sally
TTITLE4=There Is Something on Your Mind
TTITLE5=Early in the Morning
TTITLE6=Too Broke to Spend the Night
TTITLE7=Black Night
TTITLE8=Let Me Love You Baby
TTITLE9=Rememberin' Stevie
TTITLE10=Doin' What I Like Best
TTITLE11=Trouble Don't Last
EXTD=YEAR: 1991
EXTT0=
EXTT1=
EXTT2=
EXTT3=
EXTT4=
EXTT5=
EXTT6=
EXTT7=
EXTT8=
EXTT9=
EXTT10=
EXTT11=
PLAYORDER=
